<svg xmlns="http://www.w3.org/2000/svg" height="24" viewBox="0 -960 960 960" width="24"><path d="M480-34q-92.64 0-174.467-34.604-81.828-34.603-142.077-94.852-60.249-60.249-94.852-142.077Q34-387.36 34-480q0-92.896 34.662-174.449 34.663-81.553 95.175-141.942 60.511-60.389 142.075-94.999Q387.476-926 480-926q65.957 0 125.987 17.292Q666.017-891.417 717-859L617-758q-31.081-14.647-65.339-23.323Q517.403-790 480-790q-129.35 0-219.675 89.762Q170-610.477 170-480.238 170-350 260.253-260t219.5 90Q609-170 699.5-259.831 790-349.663 790-480q0-10.54-1-21.08T787-522l113-112q13 35.877 19.5 74.263t6.5 79.03q0 93.707-34.61 175.033t-94.999 141.837q-60.389 60.512-141.942 95.174Q572.896-34 480-34Zm-59-234L228-461l90-91 103 103 414-415 91 91-505 505Z"/></svg>